<?xml version="1.0" standalone="no"?>
<!DOCTYPE svg PUBLIC "-//W3C//DTD SVG 20010904//EN"
 "http://www.w3.org/TR/2001/REC-SVG-20010904/DTD/svg10.dtd">
<svg version="1.0" xmlns="http://www.w3.org/2000/svg"
 width="6000.000000pt" height="6000.000000pt" viewBox="0 0 6000.000000 6000.000000"
 preserveAspectRatio="xMidYMid meet">

<g transform="translate(0.000000,6000.000000) scale(0.100000,-0.100000)"
fill="#000000" stroke="none">
<path d="M5320 23430 l0 -430 435 0 435 0 0 -440 0 -440 -440 0 -440 0 0 440
0 440 -425 0 -425 0 0 -425 0 -425 413 -2 412 -3 3 -437 2 -438 -415 0 -415 0
0 -420 0 -420 415 0 415 0 0 410 0 410 440 0 440 0 0 -410 0 -410 450 0 450 0
0 400 0 400 440 0 440 0 0 -400 0 -400 470 0 470 0 0 435 0 435 380 2 380 3 3
403 2 402 -387 0 -388 0 -2 -402 -3 -403 -437 -3 -438 -2 0 440 0 440 420 0
420 0 -2 403 -3 402 -422 3 -423 2 0 435 0 435 -455 0 -455 0 0 -430 0 -430
-440 0 -440 0 0 430 0 430 -440 0 -440 0 0 -430z m2655 -870 l0 -435 -440 0
-440 0 -3 425 c-1 234 0 431 3 438 3 10 97 12 442 10 l438 -3 0 -435z m-905
-885 l0 -435 -440 0 -440 0 0 435 0 435 440 0 440 0 0 -435z"/>
<path d="M8870 23425 l0 -435 393 -2 392 -3 0 -418 0 -417 413 0 412 0 0 -440
0 -440 -416 0 c-375 0 -416 -2 -410 -16 3 -9 6 -198 6 -420 l0 -404 410 0 410
0 0 410 0 410 445 0 445 0 0 -410 0 -410 450 0 450 0 0 400 0 400 440 0 440 0
0 -400 0 -400 465 0 465 0 0 435 0 435 385 0 385 0 0 405 0 405 -390 0 -390 0
0 -405 0 -405 -440 0 -440 0 2 438 3 437 418 3 417 2 0 405 0 405 -425 0 -425
0 0 435 0 435 -450 0 -450 0 0 -430 0 -430 -440 0 -440 0 0 430 0 430 -440 0
-440 0 0 -430 0 -430 433 -2 432 -3 0 -435 0 -435 -438 0 -438 0 -2 435 -2
435 -427 3 -428 2 0 430 0 430 -390 0 -390 0 0 -435z m4300 -865 l0 -440 -440
0 -440 0 0 440 0 440 440 0 440 0 0 -440z m-900 -885 l0 -435 -440 0 -440 0 0
435 0 435 440 0 440 0 0 -435z"/>
<path d="M14060 23425 l0 -435 395 0 395 0 0 -420 0 -420 413 -2 412 -3 3
-437 2 -438 -415 0 -415 0 0 -420 0 -420 415 0 415 0 0 410 0 410 440 0 440 0
0 -410 0 -410 450 0 450 0 0 400 0 400 440 0 440 0 0 -400 0 -400 470 0 470 0
0 435 0 435 380 2 380 3 3 403 2 402 -387 0 -388 0 -2 -402 -3 -403 -437 -3
-438 -2 0 440 0 440 420 0 420 0 -2 403 -3 402 -422 3 -423 2 0 435 0 435
-455 0 -455 0 0 -430 0 -430 -440 0 -440 0 0 430 0 430 -440 0 -440 0 0 -430
0 -430 435 0 435 0 0 -440 0 -440 -440 0 -440 0 0 440 0 440 -425 0 -425 0 0
430 0 430 -395 0 -395 0 0 -435z m4305 -865 l0 -435 -440 0 -440 0 -3 425 c-1
234 0 431 3 438 3 10 97 12 442 10 l438 -3 0 -435z m-905 -885 l0 -435 -440 0
-440 0 0 435 0 435 440 0 440 0 0 -435z"/>
<path d="M19260 23425 l0 -435 393 -2 392 -3 0 -418 0 -417 413 0 412 0 0
-440 0 -440 -416 0 c-375 0 -416 -2 -410 -16 3 -9 6 -198 6 -420 l0 -404 410
0 410 0 0 410 0 410 445 0 445 0 0 -410 0 -410 450 0 450 0 0 400 0 400 440 0
440 0 0 -400 0 -400 465 0 465 0 0 435 0 435 385 0 385 0 0 405 0 405 -390 0
-390 0 0 -405 0 -405 -440 0 -440 0 2 438 3 437 418 3 417 2 0 405 0 405 -425
0 -425 0 0 435 0 435 -450 0 -450 0 0 -430 0 -430 -440 0 -440 0 0 430 0 430
-440 0 -440 0 0 -430 0 -430 433 -2 432 -3 0 -435 0 -435 -438 0 -438 0 -2
435 -2 435 -427 3 -428 2 0 430 0 430 -390 0 -390 0 0 -435z m4300 -865 l0
-440 -440 0 -440 0 0 440 0 440 440 0 440 0 0 -440z m-900 -885 l0 -435 -440
0 -440 0 0 435 0 435 440 0 440 0 0 -435z"/>
<path d="M24450 23425 l0 -435 395 0 395 0 0 -420 0 -420 413 -2 412 -3 3
-437 2 -438 -415 0 -415 0 0 -420 0 -420 415 0 415 0 0 410 0 410 440 0 440 0
0 -410 0 -410 450 0 450 0 0 400 0 400 440 0 440 0 0 -400 0 -400 470 0 470 0
0 435 0 435 380 2 380 3 3 403 2 402 -387 0 -388 0 -2 -402 -3 -403 -437 -3
-438 -2 0 440 0 440 420 0 420 0 -2 403 -3 402 -422 3 -423 2 0 435 0 435
-455 0 -455 0 0 -430 0 -430 -440 0 -440 0 0 430 0 430 -440 0 -440 0 0 -430
0 -430 435 0 435 0 0 -440 0 -440 -440 0 -440 0 0 440 0 440 -425 0 -425 0 0
430 0 430 -395 0 -395 0 0 -435z m4305 -865 l0 -435 -440 0 -440 0 -3 425 c-1
234 0 431 3 438 3 10 97 12 442 10 l438 -3 0 -435z m-905 -885 l0 -435 -440 0
-440 0 0 435 0 435 440 0 440 0 0 -435z"/>
<path d="M29650 23425 l0 -435 393 -2 392 -3 0 -418 0 -417 413 0 412 0 0
-440 0 -440 -416 0 c-375 0 -416 -2 -410 -16 3 -9 6 -198 6 -420 l0 -404 410
0 410 0 0 410 0 410 445 0 445 0 0 -410 0 -410 450 0 450 0 0 400 0 400 440 0
440 0 0 -400 0 -400 465 0 465 0 0 435 0 435 385 0 385 0 0 405 0 405 -390 0
-390 0 0 -405 0 -405 -440 0 -440 0 2 438 3 437 418 3 417 2 0 405 0 405 -425
0 -425 0 0 435 0 435 -450 0 -450 0 0 -430 0 -430 -440 0 -440 0 0 430 0 430
-440 0 -440 0 0 -430 0 -430 433 -2 432 -3 0 -435 0 -435 -438 0 -438 0 -2
435 -2 435 -427 3 -428 2 0 430 0 430 -390 0 -390 0 0 -435z m4300 -865 l0
-440 -440 0 -440 0 0 440 0 440 440 0 440 0 0 -440z m-900 -885 l0 -435 -440
0 -440 0 0 435 0 435 440 0 440 0 0 -435z"/>
<path d="M34840 23425 l0 -435 395 0 395 0 0 -420 0 -420 413 -2 412 -3 3
-437 2 -438 -415 0 -415 0 0 -420 0 -420 415 0 415 0 0 410 0 410 440 0 440 0
0 -410 0 -410 450 0 450 0 0 400 0 400 440 0 440 0 0 -400 0 -400 470 0 470 0
0 435 0 435 380 2 380 3 3 403 2 402 -387 0 -388 0 -2 -402 -3 -403 -437 -3
-438 -2 0 440 0 440 420 0 420 0 -2 403 -3 402 -422 3 -423 2 0 435 0 435
-455 0 -455 0 0 -430 0 -430 -440 0 -440 0 0 430 0 430 -440 0 -440 0 0 -430
0 -430 435 0 435 0 0 -440 0 -440 -440 0 -440 0 0 440 0 440 -425 0 -425 0 0
430 0 430 -395 0 -395 0 0 -435z m4305 -865 l0 -435 -440 0 -440 0 -3 425 c-1
234 0 431 3 438 3 10 97 12 442 10 l438 -3 0 -435z m-905 -885 l0 -435 -440 0
-440 0 0 435 0 435 440 0 440 0 0 -435z"/>
<path d="M40040 23425 l0 -435 393 -2 392 -3 0 -418 0 -417 413 0 412 0 0
-440 0 -440 -416 0 c-375 0 -416 -2 -410 -16 3 -9 6 -198 6 -420 l0 -404 410
0 410 0 0 410 0 410 445 0 445 0 0 -410 0 -410 450 0 450 0 0 400 0 400 440 0
440 0 0 -400 0 -400 465 0 465 0 0 435 0 435 385 0 385 0 0 405 0 405 -390 0
-390 0 0 -405 0 -405 -440 0 -440 0 2 438 3 437 418 3 417 2 0 405 0 405 -425
0 -425 0 0 435 0 435 -450 0 -450 0 0 -430 0 -430 -440 0 -440 0 0 430 0 430
-440 0 -440 0 0 -430 0 -430 433 -2 432 -3 0 -435 0 -435 -438 0 -438 0 -2
435 -2 435 -427 3 -428 2 0 430 0 430 -390 0 -390 0 0 -435z m4300 -865 l0
-440 -440 0 -440 0 0 440 0 440 440 0 440 0 0 -440z m-900 -885 l0 -435 -440
0 -440 0 0 435 0 435 440 0 440 0 0 -435z"/>
<path d="M45230 23425 l0 -435 395 0 395 0 0 -420 0 -420 413 -2 412 -3 3
-437 2 -438 -415 0 -415 0 0 -420 0 -420 415 0 415 0 0 410 0 410 440 0 440 0
0 -410 0 -410 450 0 450 0 0 400 0 400 440 0 440 0 0 -400 0 -400 470 0 470 0
0 435 0 435 380 2 380 3 3 403 2 402 -387 0 -388 0 -2 -402 -3 -403 -437 -3
-438 -2 0 440 0 440 420 0 420 0 -2 403 -3 402 -422 3 -423 2 0 435 0 435
-455 0 -455 0 0 -430 0 -430 -440 0 -440 0 0 430 0 430 -440 0 -440 0 0 -430
0 -430 435 0 435 0 0 -440 0 -440 -440 0 -440 0 0 440 0 440 -425 0 -425 0 0
430 0 430 -395 0 -395 0 0 -435z m4305 -865 l0 -435 -440 0 -440 0 -3 425 c-1
234 0 431 3 438 3 10 97 12 442 10 l438 -3 0 -435z m-905 -885 l0 -435 -440 0
-440 0 0 435 0 435 440 0 440 0 0 -435z"/>
<path d="M50430 23425 l0 -435 393 -2 392 -3 0 -418 0 -417 413 0 412 0 0
-440 0 -440 -416 0 c-375 0 -416 -2 -410 -16 3 -9 6 -198 6 -420 l0 -404 410
0 410 0 0 410 0 410 445 0 445 0 0 -410 0 -410 450 0 450 0 0 400 0 400 440 0
440 0 0 -400 0 -400 465 0 465 0 0 435 0 435 385 0 385 0 0 405 0 405 -390 0
-390 0 0 -405 0 -405 -440 0 -440 0 2 438 3 437 418 3 417 2 0 405 0 405 -425
0 -425 0 0 435 0 435 -450 0 -450 0 0 -430 0 -430 -440 0 -440 0 0 430 0 430
-440 0 -440 0 0 -430 0 -430 433 -2 432 -3 0 -435 0 -435 -438 0 -438 0 -2
435 -2 435 -427 3 -428 2 0 430 0 430 -390 0 -390 0 0 -435z m4300 -865 l0
-440 -440 0 -440 0 0 440 0 440 440 0 440 0 0 -440z m-900 -885 l0 -435 -440
0 -440 0 0 435 0 435 440 0 440 0 0 -435z"/>
<path d="M55620 23425 l0 -435 395 0 395 0 0 435 0 435 -395 0 -395 0 0 -435z"/>
</g>
</svg>
